<?xml version="1.0" encoding="UTF-8" standalone="no"?>
<svg
   xmlns:dc="http://purl.org/dc/elements/1.1/"
   xmlns:cc="http://creativecommons.org/ns#"
   xmlns:rdf="http://www.w3.org/1999/02/22-rdf-syntax-ns#"
   xmlns:svg="http://www.w3.org/2000/svg"
   xmlns="http://www.w3.org/2000/svg"
   viewBox="0 0 226.26765 340.47256"
   height="340.47256"
   width="226.26765"
   xml:space="preserve"
   id="svg869"
   version="1.1"><metadata
     id="metadata875"><rdf:RDF><cc:Work
         rdf:about=""><dc:format>image/svg+xml</dc:format><dc:type
           rdf:resource="http://purl.org/dc/dcmitype/StillImage" /><dc:title></dc:title></cc:Work></rdf:RDF></metadata><defs
     id="defs873"><clipPath
       id="clipPath887"
       clipPathUnits="userSpaceOnUse"><path
         id="path885"
         d="m 1765.03,3260.07 c 0,0 -92.75,-223.73 -195.54,-273.89 -75.35,-36.74 -166.88,-12.16 -234.51,-6.08 -7.09,0.99 -14.3,1.98 -21.51,2.73 -28.81,3.23 -58.59,4.97 -89.26,4.97 -152.95,0 -286.792,-42.09 -361.03,-105.16 -139.18,54.75 -228.453,139.67 -228.453,235.15 0,112.85 125.152,211.18 310.007,262.09 50.164,13.78 104.676,24.21 162.276,30.29 3.85,0.5 7.82,0.87 11.8,1.24 38.98,4.1 79.33,6.21 120.68,6.21 34.88,0 67.03,-1.62 95.49,-3.98 68.51,-5.83 115.82,-15.89 127.98,-17.87 129.63,-26.07 236.51,-74.37 302.07,-135.7 z" /></clipPath><linearGradient
       id="linearGradient893"
       spreadMethod="pad"
       gradientTransform="matrix(-960.126,136.571,136.571,960.126,1736.36,3058.44)"
       gradientUnits="userSpaceOnUse"
       y2="0"
       x2="1"
       y1="0"
       x1="0"><stop
         id="stop889"
         offset="0"
         style="stop-opacity:1;stop-color:#43c0b6" /><stop
         id="stop891"
         offset="1"
         style="stop-opacity:1;stop-color:#273b84" /></linearGradient><clipPath
       id="clipPath903"
       clipPathUnits="userSpaceOnUse"><path
         id="path901"
         d="m 1454.02,1646.99 c -24.32,-63.56 -68.28,-115.58 -125.39,-153.95 l -1.62,-0.37 v -0.75 c -87.91,-19.24 -182.63,-29.66 -281.34,-29.66 -35.25,0 -70.018,1.37 -104.162,3.97 v 0.25 c -48.789,3.83 -97.328,10.17 -144.637,18.74 -3.105,0.61 -6.078,1.12 -9.18,1.74 -3.238,0.74 -6.582,1.37 -9.808,1.97 -15.774,2.99 -31.297,6.35 -46.559,9.96 -81.195,18.86 -156.441,44.18 -219.015,74.5 l -0.121,0.11 c -14.903,7.07 -29.051,14.53 -42.461,22.22 l -32.532,18.86 37.004,144.39 1.739,6.59 0.617,2.73 3.355,13.05 c 30.289,107.76 122.285,176.91 234.524,176.91 34.859,0 80.328,-14.15 88.023,-16.4 94.984,-29.29 210.823,-46.54 335.703,-46.54 106.8,0 206.85,12.54 293.03,34.51 46.54,-92.12 57.59,-191.82 22.83,-282.83 z" /></clipPath><linearGradient
       id="linearGradient909"
       spreadMethod="pad"
       gradientTransform="matrix(918.747,-273.141,-273.141,-918.747,501.528,1885.45)"
       gradientUnits="userSpaceOnUse"
       y2="0"
       x2="1"
       y1="0"
       x1="0"><stop
         id="stop905"
         offset="0"
         style="stop-opacity:1;stop-color:#43c0b6" /><stop
         id="stop907"
         offset="1"
         style="stop-opacity:1;stop-color:#21346a" /></linearGradient><clipPath
       id="clipPath921"
       clipPathUnits="userSpaceOnUse"><path
         id="path919"
         d="m 1142.22,3665.77 c -145.325,0 -179.708,-84.79 -185.427,-196.33 h -0.992 v -41.38 -237.71 -1717.66 h 0.004 v -237.7 c 0,0 83.465,0 186.415,0 162.83,0 186.41,106.42 186.41,237.7 v 237.71 1479.95 279.09 196.33 c 0,0 -83.46,0 -186.41,0 z" /></clipPath><linearGradient
       id="linearGradient931"
       spreadMethod="pad"
       gradientTransform="matrix(15.8289,-1869.54,-1869.54,-15.8289,1130.98,3777.84)"
       gradientUnits="userSpaceOnUse"
       y2="0"
       x2="1"
       y1="0"
       x1="0"><stop
         id="stop923"
         offset="0"
         style="stop-opacity:1;stop-color:#8cd8c9" /><stop
         id="stop925"
         offset="0.449198"
         style="stop-opacity:1;stop-color:#63cbcb" /><stop
         id="stop927"
         offset="0.668449"
         style="stop-opacity:1;stop-color:#1084ac" /><stop
         id="stop929"
         offset="1"
         style="stop-opacity:1;stop-color:#56c7d5" /></linearGradient><clipPath
       id="clipPath941"
       clipPathUnits="userSpaceOnUse"><path
         id="path939"
         d="m 1846.97,2073.84 c 0,-285.93 -201.88,-510.15 -518.34,-580.8 57.11,38.37 101.07,90.39 125.39,153.95 79.22,207.46 -79.45,460.62 -354.45,565.65 -10.07,3.85 -20.25,7.46 -30.3,10.81 l -1.23,0.37 c -14.41,5.33 -29.81,10.8 -46.07,16.27 -260.482,87.52 -559.447,232.9 -559.447,581.41 0,273.75 187.227,485.07 491.786,559.44 -68.786,-54.88 -114.231,-125.15 -125.907,-205.85 -24.078,-166.75 102.184,-331.5 304.188,-426.34 l 0.62,-0.38 c 48.05,-24.22 111.75,-50.91 193.8,-81.82 364.16,-128.5 519.96,-305.92 519.96,-592.71 z" /></clipPath><linearGradient
       id="linearGradient947"
       spreadMethod="pad"
       gradientTransform="matrix(1384.44,0,0,-1384.44,462.524,2436.99)"
       gradientUnits="userSpaceOnUse"
       y2="0"
       x2="1"
       y1="0"
       x1="0"><stop
         id="stop943"
         offset="0"
         style="stop-opacity:1;stop-color:#44bfe3" /><stop
         id="stop945"
         offset="1"
         style="stop-opacity:1;stop-color:#273b84" /></linearGradient><clipPath
       id="clipPath971"
       clipPathUnits="userSpaceOnUse"><path
         id="path969"
         d="m 1122.12,1027.33 c -422.515,0 -765.034,32.46 -765.034,72.5 0,40.04 342.519,72.5 765.034,72.5 422.51,0 765.03,-32.46 765.03,-72.5 0,-40.04 -342.52,-72.5 -765.03,-72.5" /></clipPath><radialGradient
       id="radialGradient977"
       spreadMethod="pad"
       gradientTransform="matrix(543.385,0,0,-62.5001,1122.12,1099.83)"
       gradientUnits="userSpaceOnUse"
       r="1"
       cy="0"
       cx="0"
       fy="0"
       fx="0"><stop
         id="stop973"
         offset="0"
         style="stop-opacity:1;stop-color:#a4a4a0" /><stop
         id="stop975"
         offset="1"
         style="stop-opacity:1;stop-color:#ffffff" /></radialGradient></defs><g
     transform="matrix(1.3333333,0,0,-1.3333333,-48.243321,421.4062)"
     id="g877"><g
       transform="matrix(0.1,0,0,0.1,4.7518294,-55.989058)"
       id="g879"><g
         id="g881"><g
           clip-path="url(#clipPath887)"
           id="g883"><path
             id="path895"
             style="fill:url(#linearGradient893);fill-opacity:1;fill-rule:nonzero;stroke:none"
             d="m 1765.03,3260.07 c 0,0 -92.75,-223.73 -195.54,-273.89 -75.35,-36.74 -166.88,-12.16 -234.51,-6.08 -7.09,0.99 -14.3,1.98 -21.51,2.73 -28.81,3.23 -58.59,4.97 -89.26,4.97 -152.95,0 -286.792,-42.09 -361.03,-105.16 -139.18,54.75 -228.453,139.67 -228.453,235.15 0,112.85 125.152,211.18 310.007,262.09 50.164,13.78 104.676,24.21 162.276,30.29 3.85,0.5 7.82,0.87 11.8,1.24 38.98,4.1 79.33,6.21 120.68,6.21 34.88,0 67.03,-1.62 95.49,-3.98 68.51,-5.83 115.82,-15.89 127.98,-17.87 129.63,-26.07 236.51,-74.37 302.07,-135.7" /></g></g><g
         id="g897"><g
           clip-path="url(#clipPath903)"
           id="g899"><path
             id="path911"
             style="fill:url(#linearGradient909);fill-opacity:1;fill-rule:nonzero;stroke:none"
             d="m 1454.02,1646.99 c -24.32,-63.56 -68.28,-115.58 -125.39,-153.95 l -1.62,-0.37 v -0.75 c -87.91,-19.24 -182.63,-29.66 -281.34,-29.66 -35.25,0 -70.018,1.37 -104.162,3.97 v 0.25 c -48.789,3.83 -97.328,10.17 -144.637,18.74 -3.105,0.61 -6.078,1.12 -9.18,1.74 -3.238,0.74 -6.582,1.37 -9.808,1.97 -15.774,2.99 -31.297,6.35 -46.559,9.96 -81.195,18.86 -156.441,44.18 -219.015,74.5 l -0.121,0.11 c -14.903,7.07 -29.051,14.53 -42.461,22.22 l -32.532,18.86 37.004,144.39 1.739,6.59 0.617,2.73 3.355,13.05 c 30.289,107.76 122.285,176.91 234.524,176.91 34.859,0 80.328,-14.15 88.023,-16.4 94.984,-29.29 210.823,-46.54 335.703,-46.54 106.8,0 206.85,12.54 293.03,34.51 46.54,-92.12 57.59,-191.82 22.83,-282.83" /></g></g><path
         id="path913"
         style="fill:#131212;fill-opacity:1;fill-rule:nonzero;stroke:none"
         d="m 1328.63,1493.04 -1.62,-1.12 v 0.75 z" /><g
         id="g915"><g
           clip-path="url(#clipPath921)"
           id="g917"><path
             id="path933"
             style="fill:url(#linearGradient931);fill-opacity:1;fill-rule:nonzero;stroke:none"
             d="m 1142.22,3665.77 c -145.325,0 -179.708,-84.79 -185.427,-196.33 h -0.992 v -41.38 -237.71 -1717.66 h 0.004 v -237.7 c 0,0 83.465,0 186.415,0 162.83,0 186.41,106.42 186.41,237.7 v 237.71 1479.95 279.09 196.33 c 0,0 -83.46,0 -186.41,0" /></g></g><g
         id="g935"><g
           clip-path="url(#clipPath941)"
           id="g937"><path
             id="path949"
             style="fill:url(#linearGradient947);fill-opacity:1;fill-rule:nonzero;stroke:none"
             d="m 1846.97,2073.84 c 0,-285.93 -201.88,-510.15 -518.34,-580.8 57.11,38.37 101.07,90.39 125.39,153.95 79.22,207.46 -79.45,460.62 -354.45,565.65 -10.07,3.85 -20.25,7.46 -30.3,10.81 l -1.23,0.37 c -14.41,5.33 -29.81,10.8 -46.07,16.27 -260.482,87.52 -559.447,232.9 -559.447,581.41 0,273.75 187.227,485.07 491.786,559.44 -68.786,-54.88 -114.231,-125.15 -125.907,-205.85 -24.078,-166.75 102.184,-331.5 304.188,-426.34 l 0.62,-0.38 c 48.05,-24.22 111.75,-50.91 193.8,-81.82 364.16,-128.5 519.96,-305.92 519.96,-592.71" /></g></g><g
         transform="scale(10)"
         id="g951"><text
           id="text963"
           style="font-variant:normal;font-weight:normal;font-size:12.88259983px;font-family:NexaLight;-inkscape-font-specification:NexaLight;writing-mode:lr-tb;fill:#131212;fill-opacity:1;fill-rule:nonzero;stroke:none"
           transform="matrix(1,0,0,-1,44.2952,51.952)"><tspan
             id="tspan961"
             y="11.398082"
             x="0" /></text>
</g><g
         id="g965"><g
           clip-path="url(#clipPath971)"
           id="g967" /></g><path
         id="path1027"
         style="fill:#b5b5b1;fill-opacity:1;fill-rule:nonzero;stroke:none"
         d="m 1095.65,55.7422 h -0.02 c -0.29,1.457 -0.54,2.9297 -0.72,4.3867 0.18,-1.4492 0.43,-2.9101 0.74,-4.3867" /><path
         id="path1029"
         style="fill:#b5b5b1;fill-opacity:1;fill-rule:nonzero;stroke:none"
         d="m 1100,42.6992 c -1.12,2.3203 -2.07,4.7422 -2.87,7.25 h 0.02 v 0 0 c 0.78,-2.4492 1.71,-4.8789 2.85,-7.25" /></g></g></svg>